<?xml version="1.0" encoding="UTF-8" standalone="no"?>
<!-- Uploaded to: SVG Repo, www.svgrepo.com, Generator: SVG Repo Mixer Tools -->

<svg
   width="800px"
   height="800px"
   viewBox="0 0 512 512"
   version="1.1"
   id="svg1"
   xmlns="http://www.w3.org/2000/svg"
   xmlns:svg="http://www.w3.org/2000/svg">
  <defs
     id="defs1" />
  <path
     fill="#000000"
     d="m 113.34222,0 -13.00904,201.70857 0.30354,-2.23647 22.19127,20.90121 65.11029,4.57484 -67.99179,19.00405 -21.342432,-15.37886 -16.093285,249.20569 c 37.064947,40.727 266.718037,49.8767 317.402377,1.08409 l 10.9417,-169.49165 -0.54205,0.71115 -115.21681,31.13499 117.79153,-63.52101 16.60171,-257.266971 c -0.45098,0.05204 -0.90413,0.08348 -1.35511,0.13551 L 408.78967,7.5560896 C 324.80866,28.186274 237.99277,20.689809 128.89021,4.8783936 123.67357,3.333569 118.48622,1.7236991 113.34114,0 Z m 38.11109,71.414262 10.8734,1.658654 c 77.26292,11.846908 154.93778,13.993401 233.55581,1.832107 l 12.53205,-1.966534 -0.87811,12.672983 -6.67581,95.263098 -0.50735,7.28507 -7.08234,1.82777 c -81.94184,20.99877 -162.85813,20.64753 -241.95424,-1.89715 l -7.89215,-2.27008 0.57456,-8.19787 6.67365,-95.264185 z m 18.70051,23.172369 -5.35322,75.988029 c 17.95466,4.76131 35.9646,8.34205 54.06886,10.73897 L 170.86608,94.688536 c -0.23851,-0.03252 -0.47484,-0.0683 -0.71226,-0.101905 z m 216.27546,1.999058 c -23.86727,3.250094 -47.63264,5.211211 -71.31128,6.064381 l 41.29506,74.59823 c 8.22389,-1.53506 16.46729,-3.29346 24.73129,-5.28493 l 5.28493,-75.376597 z m -190.66389,1.253205 47.63263,85.982226 c 9.58334,0.70466 19.19703,1.10035 28.82915,1.1513 l -46.7155,-84.2878 c -9.93241,-0.775119 -19.84422,-1.728032 -29.74519,-2.845726 z"
     id="path1"
     style="stroke-width:1.08409" />
</svg>
