<?xml version="1.0" encoding="UTF-8" standalone="no"?>
<!-- Uploaded to: SVG Repo, www.svgrepo.com, Generator: SVG Repo Mixer Tools -->

<svg
   version="1.1"
   id="Layer_1"
   viewBox="0 0 512.002 512.002"
   xml:space="preserve"
   xmlns="http://www.w3.org/2000/svg"
   xmlns:svg="http://www.w3.org/2000/svg"><defs
   id="defs4" />


<g
   id="g4"
   transform="matrix(0.96014181,-0.55433814,0.55433814,0.96014181,-114.23823,123.22604)">
	<rect
   x="406.62299"
   y="151.918"
   style="fill:#000000"
   width="15.63"
   height="24.018999"
   id="rect2" />
	<rect
   x="206.282"
   style="fill:#000000"
   width="16.011999"
   height="15.63"
   id="rect3"
   y="0" />
	<rect
   x="206.282"
   y="496.37201"
   style="fill:#000000"
   width="16.011999"
   height="15.63"
   id="rect4" />
	<path
   style="fill:#000000"
   d="M 150.432,248.185 H 100.691 C 97.448,238.874 88.589,232.173 78.187,232.173 H 33.518 L 45.432,256 33.518,279.827 h 44.67 c 10.402,0 19.261,-6.702 22.504,-16.012 h 49.74 v 200.34 c 0,26.381 21.464,47.845 47.845,47.845 v -15.63 c -17.764,0 -32.214,-14.451 -32.214,-32.214 0,-17.764 14.451,-32.214 32.214,-32.214 77.499,0 143.45,-50.37 166.849,-120.09 h 33.299 v -15.63 h -28.853 c 2.459,-10.476 3.973,-21.309 4.461,-32.405 h 57.824 l -7.911,11.868 13.005,8.67 18.902,-28.355 -18.901,-28.353 -13.005,8.67 7.911,11.868 h -57.837 c -0.488,-10.937 -1.993,-21.791 -4.479,-32.405 h 69.102 v 8.196 h 15.63 v -8.196 h 24.208 v -15.63 h -24.208 v -8.197 h -15.63 v 8.197 h -73.529 c -1.858,-5.569 -3.993,-11.04 -6.4,-16.393 h 39.518 V 144.109 H 334.042 C 300.452,103.36 251.196,80.06 198.277,80.06 c -17.764,0 -32.214,-14.451 -32.214,-32.214 0,-17.763 14.451,-32.214 32.214,-32.214 V 0 c -26.381,0 -47.845,21.464 -47.845,47.845 z m 203.043,48.035 h -19.097 v 15.63 h 14.164 c -22.722,60.94 -81.504,104.46 -150.266,104.46 -12.397,0 -23.706,4.74 -32.214,12.503 V 263.815 h 192.331 c -0.537,11.134 -2.213,21.975 -4.918,32.405 z m 4.901,-48.035 H 166.063 V 83.186 c 8.508,7.762 19.817,12.503 32.214,12.503 43.732,0 84.716,17.468 114.801,48.418 h -34.552 v 39.648 h 62.891 c 2.688,5.324 5.061,10.803 7.133,16.393 h -22.179 v 15.63 h 27.088 c 2.731,10.578 4.381,21.445 4.917,32.407 z"
   id="path4" />
</g>
</svg>
