<?xml version="1.0" encoding="UTF-8" standalone="no"?>
<!-- Uploaded to: SVG Repo, www.svgrepo.com, Generator: SVG Repo Mixer Tools -->

<svg
   width="800px"
   height="800px"
   viewBox="0 0 512 512"
   version="1.1"
   id="svg1"
   xmlns="http://www.w3.org/2000/svg"
   xmlns:svg="http://www.w3.org/2000/svg">
  <defs
     id="defs1" />
  <path
     fill="#000000"
     d="M 512,14.958166 C 500.08553,5.0529967 483.91274,10.246426 463.08022,28.12322 377.0319,101.96761 233.79138,230.68166 143.72672,332.40527 l 23.82442,23.82442 C 260.5082,257.53417 397.5071,123.83813 511.99887,14.957035 Z m -382.7251,331.777944 -19.41458,19.25402 25.21746,25.2186 c 6.00756,-6.57744 12.19716,-13.28604 18.55524,-20.11563 z m -64.22078,0.034 -14.391893,14.39189 89.549053,89.54906 14.3919,-14.39189 z m 3.3266,61.26845 L 0,476.41924 c 0.4206304,12.99206 12.107826,25.25592 25.586092,25.58496 l 68.379587,-68.37959 -13.692432,-13.19223 5.008451,16.54031 -16.240633,-3.44872 3.448717,16.24062 -16.241764,-3.4487 3.448717,16.24062 -16.240632,-3.44871 3.448718,16.24177 -16.241765,-3.44872 3.448718,16.24176 -16.241764,-3.44872 -3.448716,-16.24064 16.241762,3.44872 -3.448716,-16.23949 16.241763,3.44871 -3.448718,-16.24175 16.240633,3.44871 -3.448718,-16.24178 16.241765,3.44873 -3.448719,-16.24177 15.03517,3.50332 z"
     id="path1"
     style="stroke-width:1.13072" />
</svg>
