<?xml version="1.0" encoding="windows-1252"?>
<!-- Uploaded to: SVG Repo, www.svgrepo.com, Generator: SVG Repo Mixer Tools -->
<svg fill="#ffffff" height="800px" width="800px" version="1.1" id="Layer_1" xmlns="http://www.w3.org/2000/svg" xmlns:xlink="http://www.w3.org/1999/xlink" viewBox="0 0 505.711 505.711" xml:space="preserve">
<g>
	<g>
		<path d="M422.817,358.682l-90.505-90.513l-22.647-22.639L64.144,0L59.05,11.213C39.534,54.127,48.827,105.37,82.166,138.701    l165.666,165.675l-4.727,4.736c-10.701,10.701-10.701,28.1,0,38.801l2.517,2.517c3.814,3.823,8.883,5.922,14.276,5.922    s10.462-2.099,14.276-5.914l5.897-5.896c9.003,3.959,28.476,14.49,35.994,33.997c2.603,6.75,7.979,11.827,14.746,13.935    c8.269,2.569,23.083,10.513,29.338,34.253l11.46,57.301c0.862,4.369,3.541,8.158,7.347,10.411    c6.11,3.601,21.018,11.273,36.873,11.273c10.957,0,22.374-3.669,31.659-14.874l0.879-1.058l0.495-1.271    C450.056,485.461,477.431,413.286,422.817,358.682z M262.1,338.381c-1.587,1.587-2.807,1.579-4.403-0.009l-2.526-2.526    c-1.963-1.963-3.038-4.565-3.038-7.33c0-2.773,1.075-5.376,3.038-7.339l4.727-4.736l48.273-48.273l12.075,12.066L262.1,338.381z     M345.701,356.079c-4.71,0-8.533-3.823-8.533-8.533s3.823-8.533,8.533-8.533s8.533,3.823,8.533,8.533    S350.412,356.079,345.701,356.079z M405.435,432.879c-4.71,0-8.533-3.823-8.533-8.533s3.823-8.533,8.533-8.533    s8.533,3.823,8.533,8.533S410.145,432.879,405.435,432.879z"/>
	</g>
</g>
</svg>
