<?xml version="1.0" encoding="UTF-8"?>
<!-- Svg Vector Icons : http://www.onlinewebfonts.com/icon -->
<!DOCTYPE svg PUBLIC "-//W3C//DTD SVG 1.1//EN" "http://www.w3.org/Graphics/SVG/1.1/DTD/svg11.dtd">
<svg version="1.1" xmlns="http://www.w3.org/2000/svg" xmlns:xlink="http://www.w3.org/1999/xlink" x="0px" y="0px" viewBox="0 0 256 256" enable-background="new 0 0 256 256" xml:space="preserve">
<metadata> Svg Vector Icons : http://www.onlinewebfonts.com/icon </metadata>
<g><g><g><g><path fill="#000000" d="M145.7,86.5l-18.9,18.9l-16-16l-4.8,4.8l11.2,11.2l-13.6,13.6l4.8,4.8l-15.7,15.7l-6.4,6.4l-20.9,20.9l-4-4l-15,15l4,4l-12.2,12.2c-1.5,1.5-5,9.8-19,23.7c-1.3,1.3-2.3,2.3-3.2,3.2c-0.1,0.1-0.2,0.3-0.3,0.4c-1.5-0.4-3.1,0-4.2,1.2l-0.3,0.3c-1.8,1.8-1.8,4.6,0,6.4l15.4,15.4c1.8,1.8,4.6,1.8,6.4,0l0.3-0.3c0.9-0.9,1.3-2.1,1.3-3.3c0.3-0.2,0.6-0.4,0.8-0.7c1.2-1.2,2.7-2.7,4.4-4.4c20.3-20.3,20.7-17.1,21.9-18.3l13-13l19.8,19.8c1.8,1.8,4.6,1.8,6.4,0l9.1-9.1c1.8-1.8,1.8-4.6,0-6.4l-19.8-19.8l19.7-19.7l1.9-1.9l28.3,28.3c1.8,1.8,4.6,1.8,6.4,0l9-9c1.8-1.8,1.8-4.6,0-6.4l-15.4-15.4c2.3-1,5.5-2.8,8-5.3c2.4-2.4,4.2-5.4,4.2-9.2c0-6.3-5.3-10.9-9.9-13.7l26.8-26.8L145.7,86.5z M147.8,150.5c0,6.3-8.4,10-11.1,11.1l-5.5-5.5c4.7,0.1,9.1-0.2,10.9-1.9c0,0,0.1-0.1,0.1-0.1c0.8-0.8,0.9-2.1,0.1-3c-0.8-0.9-2.2-1.1-3.2-0.3c-1,0.8-5.6,0.9-11.3,0.5l11.3-11.3C143.2,142.4,147.8,146.1,147.8,150.5z"/><path fill="#000000" d="M245,11.3c-1.4-1.4-3.7-1.4-5.1,0l-25.4,25.4c-7.7-3.1-21,2.1-32.2,13.3c-7.3,7.3-12.1,15.6-13.7,22.5l-11.6,11.6l15,15l11.6-11.6c7-1.5,15.2-6.3,22.6-13.6c11.1-11.2,16.4-24.5,13.3-32.2l25.4-25.4C246.4,15,246.4,12.7,245,11.3z"/></g></g><g/><g/><g/><g/><g/><g/><g/><g/><g/><g/><g/><g/><g/><g/><g/></g></g>
</svg>