<?xml version="1.0" encoding="UTF-8" standalone="no"?>
<!-- Uploaded to: SVG Repo, www.svgrepo.com, Generator: SVG Repo Mixer Tools -->

<svg
   fill="#ffffff"
   height="800px"
   width="800px"
   version="1.1"
   id="Capa_1"
   viewBox="0 0 296.456 296.456"
   xml:space="preserve"
   xmlns="http://www.w3.org/2000/svg"
   xmlns:svg="http://www.w3.org/2000/svg"><defs
   id="defs2" />
<g
   id="g2">

	<path
   d="M 284.13855,30.352779 78.764,159.649 c -2.252,1.41 -3.852,3.658 -4.446,6.248 -0.06,0.26 -0.101,0.52 -0.14,0.782 l -13.775,-2.193 c -4.093,-0.658 -7.936,2.137 -8.586,6.227 -0.651,4.091 2.137,7.936 6.226,8.586 l 8.063,1.284 -7.739,4.848 0.001,10e-4 -51.332,32.154 c -7.018,4.396 -9.144,13.649 -4.747,20.667 l 19.598,31.284 c 2.737,4.37 7.528,7.027 12.685,7.034 5.157,0.008 9.955,-2.636 12.705,-6.998 l 44.39,-70.42 10.83,-6.784 4.641,7.408 c 2.663,4.251 7.25,6.789 12.27,6.789 2.714,0 5.368,-0.763 7.674,-2.208 l 9.503,-5.952 c 6.761,-4.235 8.816,-13.182 4.581,-19.943 l -4.641,-7.409 59.212,-37.091 c 4.689,-2.938 6.109,-9.121 3.172,-13.812 l -5.048,-8.059 101.31755,-64.113221 z M 70.504,208.449 30.562,235.271 c -1.284,0.861 -2.737,1.274 -4.175,1.274 -2.415,0 -4.786,-1.164 -6.233,-3.319 -2.309,-3.439 -1.394,-8.099 2.045,-10.408 l 39.942,-26.822 c 3.441,-2.309 8.1,-1.394 10.408,2.045 2.309,3.439 1.394,8.098 -2.045,10.408 z m 49.065,-17.084 -4.359,-6.959 8.604,-5.39 4.358,6.959 z"
   id="path2" />
</g>
</svg>
