<?xml version="1.0" encoding="UTF-8" standalone="no"?>
<!-- Uploaded to: SVG Repo, www.svgrepo.com, Generator: SVG Repo Mixer Tools -->

<svg
   fill="#ffffff"
   height="800px"
   width="800px"
   version="1.1"
   id="Capa_1"
   viewBox="0 0 470.226 470.226"
   xml:space="preserve"
   xmlns="http://www.w3.org/2000/svg"
   xmlns:svg="http://www.w3.org/2000/svg"><defs
   id="defs1" />
<path
   d="m 468.25653,338.55757 c -19.95309,-19.9531 -33.27185,-45.79577 -38.5178,-74.73315 -8.00196,-44.14476 -26.37315,-85.13088 -53.66296,-120.24468 l 21.1989,-21.19892 c 2.6247,-2.6247 2.6247,-6.87884 0,-9.50353 l -15.21255,-15.21255 12.52997,-12.529974 13.83886,13.838856 c 1.59055,1.590558 3.87227,2.280858 6.07795,1.835918 2.20654,-0.44408 4.04331,-1.962911 4.89431,-4.045909 l 25.69581,-62.877074 c 1.02379,-2.504612 0.44494,-5.379862 -1.46785,-7.292662 -1.91281,-1.912801 -4.78893,-2.492516 -7.29354,-1.468727 L 373.46056,50.82098 c -2.083,0.850997 -3.60097,2.688634 -4.04591,4.894316 -0.44494,2.205683 0.24536,4.487394 1.83591,6.077939 l 13.83887,13.838864 -12.52998,12.52997 -15.21256,-15.212562 c -2.6247,-2.624701 -6.87882,-2.624701 -9.50351,0 L 326.64445,94.148426 C 291.53237,66.858614 250.54453,48.487432 206.39978,40.485462 177.4624,35.239513 151.62058,21.921614 131.66749,1.9685255 c -2.6247,-2.62470065 -6.87882,-2.62470065 -9.50353,0 L 100.13392,23.998568 c -2.624703,2.624701 -2.624703,6.878826 0,9.503529 7.18553,7.18553 14.95164,13.693718 23.18775,19.534933 l -6.21099,227.48249 c -0.18921,0.32571 -0.39311,0.64711 -0.57972,0.97368 -20.11119,35.21316 -43.675623,66.43398 -70.037546,92.79591 l -0.118357,0.11839 c -10.989534,-6.70603 -25.567946,-5.30988 -35.064563,4.18674 l -9.3419681,9.34197 c -2.62470118,2.62471 -2.62470118,6.87883 0,9.50352 l 70.8168351,70.81684 c 2.624702,2.6247 6.878828,2.6247 9.503529,0 l 9.341962,-9.34198 c 9.498358,-9.49833 10.892778,-24.07846 4.178966,-35.07405 l 0.117538,-0.11755 c 26.374014,-26.374 57.597414,-49.93412 92.808854,-70.02976 0.32572,-0.18575 0.64452,-0.38878 0.96936,-0.57713 l 227.48422,-6.21098 c 5.84122,8.23611 12.34942,16.00221 19.53493,23.18775 2.62471,2.62469 6.87884,2.62469 9.50354,0 l 22.03003,-22.03005 c 2.62298,-2.62643 2.62298,-6.88055 -10e-4,-9.50525 z m -33.66754,-22.2374 -12.93257,12.93258 c -10.9809,-18.05498 -18.65717,-38.26552 -22.57261,-59.87136 -8.68277,-47.90125 -31.37028,-91.07836 -63.62007,-125.11654 l 12.62414,-12.62414 c 35.60799,37.42748 59.22425,83.81248 68.42712,134.58205 3.25626,17.96599 9.3869,34.84598 18.07399,50.09741 z M 204.00229,53.710052 c 50.76872,9.202008 97.15457,32.81914 134.58206,68.427118 L 325.9602,134.76132 C 291.92203,102.51153 248.74404,79.823161 200.84281,71.140384 179.2361,67.224072 159.02642,59.548675 140.97144,48.56778 l 12.93257,-12.932574 c 15.25057,8.687952 32.13143,14.817728 50.09828,18.074846 z M 127.02285,16.11496 c 4.80966,4.393222 9.907,8.438269 15.23676,12.157604 l -12.70622,12.706217 c -5.24854,-3.810915 -10.28628,-7.913847 -15.06915,-12.325213 z m 9.50958,45.453646 c 18.80057,11.021503 39.67464,18.765153 61.91289,22.796376 35.50692,6.434751 68.27076,21.007118 96.27506,41.695428 l -27.01852,27.01853 c -26.36884,26.36883 -57.59311,49.93499 -92.80368,70.04533 -11.6116,6.62481 -22.69443,15.17972 -32.94269,25.42798 -3.86361,3.86361 -7.48618,7.84732 -10.85562,11.93211 z m 73.20223,277.553984 c 4.09255,-3.37375 8.07799,-6.99458 11.93815,-10.85475 10.2111,-10.21111 18.76515,-21.29308 25.42799,-32.94269 20.09218,-35.20625 43.65575,-66.43312 70.03581,-92.81317 l 27.01939,-27.0194 c 20.69178,28.00777 35.26673,60.7742 41.70321,96.28456 4.03122,22.23826 11.77574,43.11146 22.79724,61.91375 z m 231.83597,16.61736 c -4.41137,-4.78287 -8.51344,-9.82146 -12.32522,-15.06915 l 12.70622,-12.70621 c 3.71934,5.32975 7.76525,10.42796 12.15761,15.23675 z"
   id="path1"
   style="stroke-width:1.22182" />
</svg>
