<?xml version="1.0" encoding="UTF-8" standalone="no"?>
<!-- Uploaded to: SVG Repo, www.svgrepo.com, Generator: SVG Repo Mixer Tools -->

<svg
   fill="#000000"
   height="800px"
   width="800px"
   version="1.1"
   id="Capa_1"
   viewBox="0 0 386.143 386.143"
   xml:space="preserve"
   xmlns="http://www.w3.org/2000/svg"
   xmlns:svg="http://www.w3.org/2000/svg"><defs
   id="defs1" />
<path
   id="path1"
   d="M 245.01183,1.2659513 C 240.49804,-1.3400869 234.7241,0.20638446 232.11806,4.7201749 L 201.11358,58.421498 c 0.38859,-2.000126 1.08937,-3.9708 2.1635,-5.831247 L 203.94,51.442046 c 2.60604,-4.51379 1.05994,-10.286489 -3.45468,-12.892999 l -15.44605,-8.917786 c -4.51379,-2.606038 -10.28773,-1.059566 -12.89376,3.454224 L 36.91498,267.31163 c -8.276366,14.33508 -3.348494,32.73072 10.984961,41.00614 l 127.843009,73.81019 c 14.33345,8.27543 32.72848,3.34528 41.00485,-10.98981 L 351.97831,136.912 c 2.60652,-4.5146 1.05918,-10.28693 -3.45544,-12.89344 l -15.44528,-8.91733 c -4.51379,-2.60605 -10.28697,-1.05913 -12.893,3.45466 l -0.66291,1.1482 c -1.07414,1.86045 -2.43035,3.45272 -3.96903,4.78883 l 14.01468,-24.27414 c 2.60603,-4.513786 1.05916,-10.28693 -3.45544,-12.89344 L 301.58962,73.167403 277.06658,59.009018 260.7189,49.570685 272.98954,28.317331 c 2.60603,-4.51379 1.05834,-10.287405 -3.45544,-12.893443 z m -1.26495,21.0675997 8.1746,4.719609 -12.27018,21.252583 -19.0653,33.022071 -8.17461,-4.719609 z m 7.53326,43.585571 8.17382,4.719167 -14.34569,24.847467 -8.17383,-4.719166 z m 24.52227,14.157942 8.17383,4.719166 -14.34569,24.84747 -8.17384,-4.71917 z m 24.52226,14.157937 8.1746,4.719612 -14.34569,24.847457 -8.1746,-4.71961 z m -89.92784,80.254739 36.17399,107.2383 -11.74607,20.34481 -37.81366,-104.85389 -109.315611,19.89337 11.739409,-20.33326 z"
   style="stroke-width:0.943875" />
</svg>
