<?xml version="1.0" encoding="UTF-8" standalone="no"?>
<!-- Uploaded to: SVG Repo, www.svgrepo.com, Generator: SVG Repo Mixer Tools -->

<svg
   fill="#000000"
   height="800px"
   width="800px"
   version="1.1"
   id="Layer_1"
   viewBox="0 0 512 512"
   xml:space="preserve"
   xmlns="http://www.w3.org/2000/svg"
   xmlns:svg="http://www.w3.org/2000/svg"><defs
   id="defs2" />
<g
   id="g2"
   transform="matrix(0.91294708,0.52709024,-0.52709024,0.91294708,157.96801,-113.31861)">
	<g
   id="g1">
		<path
   d="m 346.266,314.291 c 5.359,-11.349 4.745,-23.671 -1.681,-33.826 -1.775,-2.799 -3.9,-5.282 -6.289,-7.398 7.091,-6.255 11.571,-15.42 11.571,-25.6 0,-10.18 -4.48,-19.345 -11.58,-25.6 7.1,-6.255 11.58,-15.42 11.58,-25.6 0,-7.697 -2.569,-14.814 -6.886,-20.54 0.777,-0.606 1.502,-1.271 2.167,-2.014 3.166,-3.516 4.702,-8.235 4.198,-12.945 -3.772,-35.934 -27.324,-65.229 -59.213,-77.602 V 59.733 h 8.96 c 9.173,0 16.64,-7.467 16.64,-16.64 V 25.557 C 315.733,11.469 304.265,0 290.176,0 h -68.352 c -14.089,0 -25.557,11.469 -25.557,25.557 v 17.536 c 0,9.173 7.467,16.64 16.64,16.64 h 8.96 v 23.433 c -31.889,12.373 -55.441,41.668 -59.213,77.602 -0.503,4.71 1.033,9.429 4.198,12.945 0.666,0.742 1.391,1.408 2.167,2.014 -4.318,5.726 -6.886,12.843 -6.886,20.54 0,10.18 4.48,19.345 11.58,25.6 -7.1,6.255 -11.58,15.42 -11.58,25.6 0,10.18 4.48,19.345 11.571,25.6 -2.389,2.116 -4.514,4.599 -6.289,7.398 -6.426,10.155 -7.04,22.477 -1.681,33.826 2.253,4.762 5.692,8.798 9.916,11.887 -3.132,4.25 -4.983,9.489 -4.983,15.155 v 113.613 c 0,31.462 25.591,57.054 57.045,57.054 h 56.576 c 31.454,0 57.045,-25.591 57.045,-57.054 V 341.333 c 0,-5.666 -1.852,-10.906 -4.983,-15.155 4.224,-3.089 7.663,-7.125 9.916,-11.887 z M 238.933,59.733 h 34.133 v 18.543 c -2.568,-0.444 -5.137,-0.759 -7.706,-0.998 -0.162,-0.017 -0.324,-0.051 -0.486,-0.06 -2.961,-0.273 -5.922,-0.418 -8.875,-0.418 -2.952,0 -5.914,0.145 -8.875,0.418 -0.162,0.009 -0.324,0.043 -0.486,0.06 -2.568,0.239 -5.137,0.555 -7.706,0.998 V 59.733 Z M 281.6,332.8 h -51.2 c -4.71,0 -8.533,-3.814 -8.533,-8.533 0,-4.719 3.823,-8.533 8.533,-8.533 h 51.2 c 4.71,0 8.533,3.814 8.533,8.533 0,4.719 -3.823,8.533 -8.533,8.533 z m 0,-51.2 h -51.2 c -4.71,0 -8.533,-3.814 -8.533,-8.533 0,-4.719 3.823,-8.533 8.533,-8.533 h 51.2 c 4.71,0 8.533,3.814 8.533,8.533 0,4.719 -3.823,8.533 -8.533,8.533 z m 0,-51.2 h -51.2 c -4.71,0 -8.533,-3.814 -8.533,-8.533 0,-4.719 3.823,-8.533 8.533,-8.533 h 51.2 c 4.71,0 8.533,3.814 8.533,8.533 0,4.719 -3.823,8.533 -8.533,8.533 z m 0,-51.2 h -51.2 c -4.71,0 -8.533,-3.814 -8.533,-8.533 0,-4.719 3.823,-8.533 8.533,-8.533 h 51.2 c 4.71,0 8.533,3.814 8.533,8.533 0,4.719 -3.823,8.533 -8.533,8.533 z"
   id="path1" />
	</g>
</g>
</svg>
