<?xml version="1.0" encoding="UTF-8" standalone="no"?>
<!-- Uploaded to: SVG Repo, www.svgrepo.com, Generator: SVG Repo Mixer Tools -->

<svg
   fill="#000000"
   height="800px"
   width="800px"
   version="1.1"
   id="Capa_1"
   viewBox="0 0 307.09 307.09"
   xml:space="preserve"
   xmlns="http://www.w3.org/2000/svg"
   xmlns:svg="http://www.w3.org/2000/svg"><defs
   id="defs2" />
<path
   id="path1"
   d="m 145.72066,0.67231706 c -1.29417,-0.74718488 -2.85411,-0.87854885 -4.25541,-0.35912985 -1.40131,0.519419 -2.49841,1.63641689 -2.99163,3.04628609 l -7.841,22.3733847 C 105.68738,46.401357 66.282394,109.0512 45.168648,156.95391 c 8.283589,4.46023 16.940918,8.20033 25.685702,11.65407 2.34972,0.92802 4.715719,1.81374 7.07364,2.72073 7.936524,2.94126 15.940546,5.70779 24.01632,8.24483 l 52.52656,-90.97868 c 2.57699,-4.463485 8.24552,-5.98236 12.70901,-3.405367 l 38.74902,22.371767 c 4.46348,2.57699 5.98237,8.24552 3.40538,12.709 l -42.44727,73.5208 c 6.08,0.67448 12.17954,1.17952 18.28832,1.50216 3.43063,0.18118 4.87645,0.20342 8.25987,0.30102 4.46286,0.0652 8.93206,0.0145 13.38849,-0.25255 2.0717,-0.12413 3.38676,-0.25655 5.43629,-0.44041 4.36783,-0.36135 8.67529,-1.1483 12.94347,-2.11899 3.35349,-0.76472 6.62235,-1.83363 9.8458,-3.023 2.35965,-0.88163 4.60433,-2.01538 6.75778,-3.31516 1.29095,-0.78857 2.48604,-1.71238 3.63183,-2.69476 15.30954,-28.60946 27.24865,-56.57605 30.25509,-74.26386 l 15.45899,-17.975864 c 0.97478,-1.132807 1.39307,-2.640516 1.14267,-4.114512 -0.25083,-1.473272 -1.14457,-2.758546 -2.43873,-3.505731 z M 235.04801,202.37539 c -1.35135,0.4076 -2.71435,0.77699 -4.09149,1.09586 -4.3151,0.99599 -8.66932,1.81802 -13.08775,2.19577 -1.9451,0.17991 -3.5221,0.33916 -5.48099,0.46385 -4.48336,0.28538 -8.98084,0.3426 -13.4717,0.29505 -3.3144,-0.0887 -4.93883,-0.11345 -8.29465,-0.28343 -6.91024,-0.35001 -13.80956,-0.93973 -20.68297,-1.72935 -2.01835,-0.26256 -4.04065,-0.4966 -6.05509,-0.78755 -0.82145,-0.11865 -1.64235,-0.24069 -2.46305,-0.36593 l -8.79112,15.22667 c -2.577,4.46349 -8.24553,5.98236 -12.70901,3.40537 l -38.74903,-22.37176 c -4.263415,-2.46149 -5.840058,-7.74327 -3.72709,-12.10158 -4.826174,-1.62283 -9.627573,-3.32029 -14.40481,-5.07947 -2.364573,-0.90392 -4.736912,-1.78699 -7.093605,-2.71126 -8.92088,-3.49862 -17.750287,-7.2913 -26.213303,-11.79788 -2.488329,-1.39045 -4.980219,-2.78236 -7.368254,-4.33954 -5.508193,13.21077 -9.412292,25.01485 -10.957665,34.10494 l -15.459852,17.97609 c -0.974789,1.1328 -1.393064,2.64051 -1.142661,4.11451 0.25082,1.47327 1.144557,2.75854 2.43872,3.50572 l 144.13568,83.21678 0.0147,0.008 c 2.4021,1.38685 5.47193,0.56307 6.85794,-1.83758 0.23261,-0.40289 0.40328,-0.82384 0.51445,-1.25238 l 7.70324,-21.97919 c 16.38264,-13.57537 39.00117,-45.2547 58.57939,-78.97218 z"
   style="stroke-width:0.836713" />
</svg>
