<?xml version="1.0" encoding="UTF-8" standalone="no"?>
<!-- Svg Vector Icons : http://www.onlinewebfonts.com/icon -->

<svg
   version="1.1"
   x="0px"
   y="0px"
   viewBox="0 0 256 256"
   enable-background="new 0 0 256 256"
   xml:space="preserve"
   id="svg3"
   xmlns="http://www.w3.org/2000/svg"
   xmlns:svg="http://www.w3.org/2000/svg"><defs
   id="defs3" />
<metadata
   id="metadata1"> Svg Vector Icons : http://www.onlinewebfonts.com/icon </metadata>
<g
   id="g3"
   transform="matrix(0.89823403,0,0,0.89823403,13.026331,13.031399)"><path
     id="path1"
     fill="#000000"
     style="display:inline;stroke-width:1.11307"
     d="m 62.220934,0.10523907 -12.132876,0.1108727 -0.110872,12.46766623 -0.110873,12.46549 -6.011001,0.223919 c -5.23142,0.222613 -6.345358,0.443488 -8.6828,1.556556 -3.895738,2.003522 -5.898825,4.007479 -7.902347,7.680603 -1.669603,3.005284 -1.781779,3.562688 -2.004393,9.239335 L 25.044029,49.860682 12.578538,50.082426 0,50.193297 v 11.798087 l 12.578538,0.113045 12.576363,0.221744 v 8.126266 8.124092 L 12.578538,78.687404 0,79.022193 v 11.798086 l 12.578538,0.110872 12.576363,0.113045 v 8.124093 8.126271 L 12.578538,107.40543 0,107.74022 v 11.79808 l 12.578538,0.11087 12.576363,0.11086 v 8.12626 8.12409 L 12.578538,136.12345 0,136.56694 v 11.80025 l 12.578538,0.11087 12.576363,0.11086 v 8.12626 8.1241 L 12.578538,164.95017 0,165.28496 v 11.79809 l 12.578538,0.11086 12.576363,0.11305 v 8.12409 8.12626 L 12.578538,193.66819 0,194.11385 v 11.79809 l 12.578538,0.11086 12.576363,0.11086 0.223918,6.01101 c 0.222613,5.67664 0.332616,6.23405 2.002218,9.23932 2.003522,3.78444 4.230093,5.89927 8.237138,7.79149 2.337442,1.11306 3.783561,1.33438 8.569754,1.44568 l 5.789258,0.22392 0.110871,12.57638 L 50.19893,256 h 11.798087 l 0.113045,-12.57854 0.110872,-12.57636 h 8.124092 8.126266 L 78.582165,243.42146 78.693036,256 h 11.80026 l 0.110872,-12.57854 0.110872,-12.57636 h 8.126264 8.124096 l 0.11086,12.57636 L 107.18932,256 h 11.79808 l 0.11088,-12.57854 0.11086,-12.57636 h 8.12626 8.12409 l 0.11304,12.57636 L 135.68342,256 h 11.79809 l 0.11086,-12.57854 0.11086,-12.57636 h 8.12628 8.12627 l 0.11087,12.57636 L 164.17753,256 h 11.79808 l 0.11086,-12.57854 0.11304,-12.57636 h 8.1241 8.12626 l 0.11089,12.57636 L 192.67163,256 h 11.79809 l 0.11304,-12.57854 0.11086,-12.57636 5.78709,-0.11086 c 5.34272,-0.22261 6.12274,-0.33522 9.23933,-1.89352 3.89574,-1.89222 6.12058,-4.22965 8.1241,-8.34801 1.11306,-2.33744 1.33655,-3.78356 1.44785,-8.56976 l 0.22175,-5.78925 12.57854,-0.11089 13.91335,-0.11087 v -11.79809 l -12.57853,-0.11086 -12.57637,-0.11304 v -8.12409 -8.12627 l 12.57637,-0.11088 12.57853,-0.11087 v -11.79809 l -12.57853,-0.11304 -12.57637,-0.11086 v -8.12411 -8.12627 l 12.57637,-0.11086 12.57853,-0.11088 v -11.80026 l -12.57853,-0.11087 -12.57637,-0.11088 v -8.12626 -8.12409 l 12.57637,-0.11086 12.57853,-0.11305 v -11.79809 l -12.57853,-0.11086 -12.57637,-0.11087 v -8.12626 -8.124094 l 12.57637,-0.113067 12.57853,-0.110872 V 79.022193 L 243.4271,78.91132 230.85073,78.800448 v -8.126265 -8.34801 l 12.57637,-0.110871 12.57853,-0.110873 V 50.30417 l -12.57853,-0.221744 -12.57637,-0.110873 -0.22392,-5.789257 c -0.1113,-4.786193 -0.44392,-6.232312 -1.44568,-8.569754 -1.89222,-4.007046 -4.00705,-6.233616 -7.79147,-8.237138 -3.00529,-1.669603 -3.5627,-1.779605 -9.23934,-2.002218 l -6.011,-0.223918 -0.11088,-12.576363 -0.11087,-12.46766593 h -11.79809 l -0.11086,12.57853893 -0.11304,12.576363 h -8.12409 -8.12626 L 177.53434,12.683778 177.42347,0.10523907 h -11.79809 l -0.11304,12.57853893 -0.11086,12.576363 h -8.1241 -8.12628 L 149.04024,12.683778 148.92938,0.10523907 H 137.1291 l -0.11087,12.57853893 -0.11087,12.576363 h -8.90454 -8.12627 L 119.76568,12.683778 119.65481,0.10523907 H 107.85672 L 107.74586,12.683778 107.63282,25.260141 H 99.508721 91.382456 L 91.271574,12.683778 91.160702,0.10523907 H 78.916954 L 78.806081,12.683778 78.693036,25.260141 H 70.568944 62.442677 L 62.331806,12.683778 Z M 113.53294,49.971554 113.42207,61.658768 c -0.1113,13.134202 -0.22217,13.244639 -4.00661,15.804695 -1.5583,1.224375 -1.89265,1.223941 -18.254747,1.223941 H 74.575554 l -0.110873,14.915544 c -0.111307,14.024662 -0.222179,14.914682 -1.22394,16.250362 -2.44875,3.3392 -2.895282,3.56269 -13.580734,3.67399 l -9.682821,0.11086 -0.223926,-8.348 h 0.03914 8.198006 8.237143 V 91.044196 c 0,-13.690735 0.110873,-14.249008 1.223939,-16.25253 0.779149,-1.335682 1.891782,-2.447012 3.450078,-3.226159 2.226135,-1.113068 2.782669,-1.113068 18.36562,-1.113068 h 16.139474 v -10.24153 l -0.22173,-10.239355 8.34801,-0.05544 M 49.866326,179.5331 h 16.917752 c 11.798521,0 17.36473,-0.22261 18.143877,-0.55653 0.667841,-0.33394 2.781366,-2.11657 4.784888,-4.0088 5.676647,-5.34272 6.790585,-5.67621 20.926547,-5.67621 h 11.4633 l 1.89351,-3.45006 c 6.3445,-12.02114 23.26182,-11.57635 29.27239,0.6674 1.11307,2.11483 1.33698,3.34051 1.33698,6.90232 0,4.00705 -0.22217,4.56228 -1.78047,7.56756 -1.00176,1.89222 -2.56006,3.89531 -3.33921,4.56315 -8.45931,7.12364 -20.48088,5.00924 -25.48969,-4.56315 l -1.89351,-3.45007 h -10.90677 c -7.34624,0 -11.46503,0.22261 -12.132871,0.55653 -0.66784,0.33392 -2.783539,2.1144 -4.787062,4.00661 -6.010566,5.67665 -6.009697,5.67621 -26.935375,5.67621 H 49.866314 Z M 179.42569,49.916118 l 8.23713,0.05544 -0.11086,22.037441 c -0.1113,21.593519 -0.22218,22.151357 -1.22394,23.598346 -0.55653,0.779147 -1.89222,1.890917 -2.78266,2.558747 -1.66961,1.224375 -2.1144,1.226122 -13.46769,1.226122 -6.90103,0 -12.24462,0.222614 -13.13507,0.556534 -1.89222,0.779142 -15.02729,13.689862 -15.91775,15.804702 -0.44523,1.00175 -0.6674,3.56267 -0.6674,7.01318 0,8.57062 -0.66784,9.79412 -9.46107,18.58737 -6.23319,6.34448 -7.67931,7.34623 -10.23937,8.34802 -2.89398,1.11307 -3.56138,1.11307 -36.842111,1.11307 H 49.866326 l 0.110861,-8.4589 h 33.392039 c 27.826694,0 33.724654,4.3e-4 34.837734,-0.6674 2.22613,-1.11307 13.35767,-12.69028 13.6916,-14.13727 0.1113,-0.77915 0.33435,-4.00704 0.44566,-7.23494 0.22261,-8.45932 0.66784,-9.2376 10.0176,-18.58737 5.12012,-5.12011 8.45802,-8.013652 10.35024,-9.015414 l 2.78266,-1.447846 12.02201,-0.221745 11.90896,-0.223917 v -20.48089 -20.36784 m -37.06387,-0.05544 8.34802,0.02772 v 9.154004 c 0,13.802043 1.22351,11.909394 -17.58734,30.720242 l -15.47209,15.472076 1.00221,2.22614 c 1.44698,3.33921 1.33698,9.685 -0.33263,13.0242 -1.6696,3.33921 -4.67618,6.45492 -8.01539,8.01322 -3.78443,1.78091 -10.24022,1.78091 -13.913349,0 -3.339204,-1.6696 -6.454924,-4.67401 -8.013219,-8.01322 -1.780909,-3.78443 -1.780909,-10.24023 0,-13.91335 3.673124,-7.680171 12.465488,-11.354599 20.256968,-8.571928 l 3.11745,1.113068 14.58077,-14.469887 c 8.01408,-8.014089 14.91597,-15.136419 15.3612,-15.915567 0.44523,-1.001761 0.6674,-3.452249 0.6674,-10.130657 v -8.680626 m -35.84208,56.209937 c 5.34272,2.22613 6.5684,9.12759 2.45005,13.24594 -3.3392,3.3392 -8.12627,3.3392 -11.46547,0 -5.454034,-5.55143 -0.766105,-14.25793 6.00883,-13.96118 0.96785,0.0425 1.97699,0.27001 3.00659,0.71524 z m 64.65576,5.6762 c 2.54615,0 5.07882,0.44437 6.91538,1.33482 12.35505,6.01056 12.68853,23.15268 0.6674,29.27455 l -3.45008,1.78049 v 7.90234 c 0,4.8975 0.22262,8.34975 0.55653,9.01759 0.44523,0.55653 2.67093,3.22703 5.11968,5.78708 6.67841,6.90103 6.67841,7.01277 6.67841,24.93316 v 14.35901 h -8.348 v -13.91335 c 0,-9.46107 -0.22261,-14.24727 -0.55654,-15.02641 -0.44523,-0.55654 -2.67093,-3.2292 -5.11968,-5.78926 -6.12187,-6.34449 -6.67841,-7.79192 -6.67841,-18.81128 v -8.34801 l -3.45007,-1.89136 c -12.02114,-6.34448 -11.57634,-23.26399 0.66741,-29.27455 1.89221,-0.89045 4.45183,-1.33482 6.99797,-1.33482 z m 0.23045,8.00018 c -6.79472,-0.24348 -11.55591,8.37498 -6.00448,13.9264 3.3392,3.3392 8.12626,3.3392 11.46547,0 4.11835,-4.11835 2.89267,-11.01764 -2.45006,-13.24377 -1.02959,-0.43131 -2.04026,-0.64784 -3.01093,-0.68263 z M 141.4705,165.8415 c 5.34274,2.22613 6.56841,9.12759 2.45005,13.24594 -3.3392,3.33921 -8.12626,3.33921 -11.46546,0 -5.25925,-5.44708 -1.08783,-13.66693 5.29143,-13.96335 1.18133,-0.0549 2.437,0.16087 3.72398,0.71741 z" /></g>
</svg>
