<?xml version="1.0" encoding="UTF-8" standalone="no"?>
<!-- Uploaded to: SVG Repo, www.svgrepo.com, Generator: SVG Repo Mixer Tools -->

<svg
   width="800px"
   height="800px"
   viewBox="0 0 76 76"
   version="1.1"
   xml:space="preserve"
   enable-background="new 0 0 76.00 76.00"
   id="svg1"
   xmlns="http://www.w3.org/2000/svg"
   xmlns:svg="http://www.w3.org/2000/svg"><defs
   id="defs1" />
	<path
   id="path1" fill="#000000"
   d="m 62.468263,8.7488129 c -3.463042,0 -6.926139,1.3213271 -9.568379,3.9635661 L 33.62464,31.987624 a 18.208531,18.208531 0 0 1 1.002984,5.960282 18.208531,18.208531 0 0 1 -16.918037,18.162846 c 0.469583,2.628829 1.72013,5.145601 3.751605,7.177077 5.284477,5.284478 13.852014,5.284478 19.136492,0 L 72.036642,31.848871 c 5.284478,-5.284478 5.284478,-13.852159 0,-19.136493 -2.642238,-2.642239 -6.105336,-3.9635665 -9.568379,-3.9635651 z m -1.066148,6.3889621 c 2.075975,0 4.151982,0.792054 5.735901,2.375972 3.167837,3.167838 2.66912,8.802679 -0.498715,11.970517 L 53.457274,42.66576 41.985738,31.194224 55.666215,17.513746 c 1.583918,-1.58392 3.659926,-2.375971 5.7359,-2.375971 z m -44.983061,6.1844 C 8.2456962,21.322251 1.2846462,27.263094 0,35.334865 H 32.838375 C 31.553712,27.262995 24.592513,21.322121 16.419054,21.322175 Z M 0,40.560948 c 1.2845299,8.071876 8.2456092,14.012858 16.419054,14.012956 8.173545,3.4e-5 15.134776,-5.940982 16.419321,-14.012955 z"
   style="stroke-width:1.42438" />
</svg>
