<?xml version="1.0" encoding="UTF-8" standalone="no"?>
<svg
   width="512"
   height="512"
   viewBox="0 0 135.46667 135.46667"
   version="1.1"
   id="svg8"
   xmlns="http://www.w3.org/2000/svg"
   xmlns:svg="http://www.w3.org/2000/svg"
   xmlns:rdf="http://www.w3.org/1999/02/22-rdf-syntax-ns#"
   xmlns:cc="http://creativecommons.org/ns#"
   xmlns:dc="http://purl.org/dc/elements/1.1/">

  <path
     style="fill:#000000;fill-opacity:1;stroke-width:0.388713"
     d="m 109.12898,122.61108 -12.715473,-12.85557 -1.195499,0.41674 c -1.762287,0.61433 -3.856377,0.50331 -5.018345,-0.26605 -0.562936,-0.37272 -1.92324,-1.62212 -3.022918,-2.77643 l -1.999392,-2.09876 -1.058592,0.9237 c -0.582221,0.50802 -1.809595,1.62739 -2.727512,2.48747 l -1.66893,1.56376 L 69.162002,99.316319 C 63.353845,93.437016 54.398821,84.341126 49.261991,79.103208 44.125151,73.865291 35.547156,65.146381 30.199789,59.727837 l -9.722488,-9.851908 4.164966,-3.947426 4.164969,-3.947426 -4.650861,-4.826733 c -2.557971,-2.65468 -4.650858,-4.935966 -4.650858,-5.069515 0,-0.133551 0.799616,-1.022637 1.776922,-1.975765 l 1.776923,-1.732967 4.789299,5.053267 4.789296,5.053295 4.130089,-4.014502 c 2.271538,-2.207959 4.258266,-3.957162 4.41493,-3.88713 0.156674,0.07008 4.215492,4.150537 9.019605,9.067764 4.804104,4.917215 13.290585,13.575818 18.858815,19.241318 23.204208,23.609506 30.907826,31.510684 30.907826,31.700471 0,0.110331 -1.146313,1.27297 -2.547378,2.583595 l -2.547369,2.38293 1.88137,1.976781 c 1.034754,1.08724 2.199858,2.361157 2.589126,2.830954 0.870959,1.05115 1.116509,3.97859 0.442634,5.27745 -0.485284,0.93543 -0.111503,1.35797 13.251745,14.98251 7.5631,7.71095 13.75111,14.20484 13.75111,14.43089 0,0.24577 -0.99416,0.41098 -2.47302,0.41098 h -2.47301 z M 87.291294,97.53169 c 3.979761,-3.760835 7.235934,-6.956786 7.235934,-7.102118 0,-0.145301 -1.571347,-1.828302 -3.491892,-3.73995 l -3.491903,-3.475725 -1.464204,1.341146 c -0.805299,0.737617 -2.2611,2.090387 -3.235107,3.006143 l -1.7709,1.665018 -0.914592,-0.973534 -0.914592,-0.973555 3.176236,-3.018986 3.176259,-3.018995 -1.209769,-1.31284 -1.209757,-1.312828 -2.982369,2.964868 c -1.640289,1.630668 -3.170035,2.964868 -3.399418,2.964868 -0.229362,0 -0.739703,-0.356564 -1.13408,-0.79234 -0.706958,-0.781168 -0.672021,-0.837656 2.474691,-4.000798 l 3.191775,-3.208457 -1.17184,-1.122686 -1.17184,-1.122697 -1.071581,0.934589 c -0.589366,0.514025 -2.085413,1.901273 -3.324537,3.082755 L 72.334829,80.463711 71.58391,79.49193 c -0.41301,-0.534474 -0.754792,-1.091106 -0.759554,-1.236942 -0.0042,-0.145888 1.391769,-1.535801 3.10338,-3.088829 l 3.111984,-2.823669 -1.248387,-1.288027 -1.248378,-1.288005 -1.766443,1.660611 c -4.655506,4.376582 -4.521578,4.284381 -5.413434,3.727392 -0.452764,-0.282755 -0.823218,-0.712845 -0.823218,-0.955741 0,-0.242916 1.3549,-1.766179 3.010874,-3.385055 l 3.010876,-2.94338 -1.337926,-1.380375 c -0.735843,-0.759219 -1.480424,-1.380386 -1.6546,-1.380386 -0.174184,0 -1.058203,0.338161 -1.964495,0.751465 -4.883935,2.227294 -17.245124,7.411515 -17.67192,7.411515 -0.272902,0 -0.496199,0.10857 -0.496199,0.241238 0,0.354288 29.975186,30.855848 30.323346,30.855848 0.16256,0 3.551727,-3.07706 7.531478,-6.8379 z M 117.08834,68.206201 104.08215,55.407439 97.155667,62.299221 c -3.809564,3.790489 -7.096929,6.950285 -7.305254,7.021744 -0.735024,0.252192 -3.725944,-2.338161 -7.66483,-6.638322 -3.424157,-3.738208 -3.984314,-4.53612 -3.984314,-5.675436 0,-1.226796 0.961354,-2.271633 12.887481,-14.00661 7.088126,-6.974511 13.01888,-12.680941 13.17944,-12.680941 0.16057,0 6.16837,5.822648 13.35066,12.939218 l 13.05874,12.939217 v 12.42435 c 0,6.833386 -0.1312,12.414931 -0.29154,12.403433 -0.16034,-0.01175 -6.14432,-5.780355 -13.29771,-12.819673 z m 0.19887,-30.540645 C 110.2432,30.739108 104.30209,25.07203 104.08479,25.07203 c -0.21731,0 -6.002341,5.597475 -12.855629,12.438836 -6.853298,6.841348 -12.588191,12.438831 -12.744215,12.438831 -0.156024,0 -0.283677,-5.607923 -0.283677,-12.462071 V 25.025561 L 90.884265,12.512779 C 98.285791,5.2105728 103.8653,0 104.283,0 c 0.42054,0 5.91044,5.1800584 13.31076,12.559485 l 12.595,12.559483 0.28667,12.25649 c 0.15805,6.757204 0.13693,12.397189 -0.0472,12.570063 -0.18359,0.172464 -6.0971,-5.353527 -13.14111,-12.279965 z M 6.3330842,35.806315 C 5.412996,34.868796 4.7206209,33.849256 4.7944769,33.54064 4.9595245,32.850972 24.204839,14.581789 24.769396,14.578865 c 0.222726,-0.0012 1.184791,0.79515 2.137922,1.769581 l 1.732968,1.771667 -1.749211,1.601317 c -0.962068,0.880714 -5.537178,5.24363 -10.166916,9.695374 -4.629736,4.451736 -8.4853101,8.094062 -8.5679428,8.094062 -0.082647,0 -0.9030431,-0.767055 -1.823132,-1.704551 z"
     id="path2342" />
</svg>
