<?xml version="1.0" encoding="UTF-8" standalone="no"?>
<!-- Uploaded to: SVG Repo, www.svgrepo.com, Generator: SVG Repo Mixer Tools -->

<svg
   width="800px"
   height="800px"
   viewBox="-33 0 255 255"
   preserveAspectRatio="xMidYMid"
   version="1.1"
   id="svg2"
   xml:space="preserve"
   xmlns="http://www.w3.org/2000/svg"
   xmlns:svg="http://www.w3.org/2000/svg"><defs
     id="defs2"></defs><path
     id="path-1"
     class="cls-3"
     d="M 62.395276 -0.0012451172 C 57.096697 -0.17348383 57.870904 6.076021 58.999841 9.812146 C 62.865841 22.612146 74.179293 41.019134 60.000293 71.812134 C 50.328293 92.817134 36.000037 103.81227 36.000037 103.81227 C 36.000037 103.81227 35.851098 94.37389 32.000098 87.81189 C 25.469098 76.68289 23.177939 83.51289 21.999939 87.81189 C 19.855939 95.63389 16.057122 104.19074 10.000122 117.81174 C -0.12087793 140.57174 -3.6621094e-05 154.06187 -3.6621094e-05 160.81187 C -3.6621094e-05 211.31187 42.085085 254.81199 94.000085 254.81199 C 144.57409 254.81199 185.80273 214.86769 187.89873 164.80869 C 187.89873 164.80869 190.96871 137.32104 179.99971 108.81204 C 173.95871 93.113036 163.22583 76.599817 155.99883 67.812817 C 148.39983 58.572817 148.36491 67.151073 145.99991 75.812073 C 143.90591 83.482073 138.00004 90.812 138.00004 90.812 C 138.00004 90.812 131.44495 65.847 112.99995 39.812 C 100.07595 21.57 75.35189 4.2628164 65.99989 0.81181641 C 64.565828 0.28275391 63.376494 0.03065094 62.395276 -0.0012451172 z M 52.187805 120.44143 L 150.8098 120.44143 C 153.07909 120.44143 154.91869 122.28078 154.91869 124.55032 C 154.91869 126.81985 153.07908 128.65983 150.8098 128.65983 L 97.389294 128.65983 L 97.389294 136.87822 L 150.8098 136.87822 C 153.07933 136.87822 154.91869 138.71819 154.91869 140.98773 C 154.91869 143.25728 153.07908 145.09724 150.8098 145.09724 L 97.389294 145.09724 L 97.389294 172.49169 L 153.54906 172.49169 C 155.81861 172.49169 157.65857 174.33166 157.65857 176.6012 C 157.65857 188.47315 154.26515 199.99751 147.84518 209.928 C 142.08063 218.84469 134.14383 226.10591 124.78436 231.05453 L 124.78436 234.13059 C 124.78436 240.92813 119.25463 246.4585 112.45708 246.4585 L 76.842993 246.4585 C 70.045457 246.4585 64.51571 240.92813 64.51571 234.13059 L 64.51571 231.05453 C 55.156233 226.10591 47.219438 218.84445 41.454895 209.928 C 35.034913 199.99751 31.641504 188.47315 31.641504 176.6012 C 31.641504 174.33166 33.481474 172.49207 35.751013 172.49231 L 56.296692 172.49231 L 56.296692 145.09724 L 52.187805 145.09724 C 49.918267 145.09724 48.078296 143.25728 48.078296 140.98773 C 48.078296 138.71821 49.918513 136.87885 52.187805 136.87885 L 56.296692 136.87885 L 56.296692 128.65983 L 52.187805 128.65983 C 49.918267 128.65983 48.078296 126.82048 48.078296 124.55094 C 48.078296 122.2814 49.918513 120.44143 52.187805 120.44143 z M 64.51571 128.65983 L 64.51571 172.49169 L 72.734106 172.49169 L 72.734106 128.65983 L 64.51571 128.65983 z M 80.952502 128.65983 L 80.952502 172.49169 L 89.170898 172.49169 L 89.170898 128.65983 L 80.952502 128.65983 z "
     style="fill:#ffffff;fill-opacity:1" /></svg>
