<?xml version="1.0" encoding="UTF-8" standalone="no"?>
<!-- Uploaded to: SVG Repo, www.svgrepo.com, Generator: SVG Repo Mixer Tools -->

<svg
   fill="#ffffff"
   height="800px"
   width="800px"
   version="1.1"
   id="Layer_1"
   viewBox="0 0 512 512"
   xml:space="preserve"
   xmlns="http://www.w3.org/2000/svg"
   xmlns:svg="http://www.w3.org/2000/svg"><defs
   id="defs4" />
<path
   id="path1"
   d="M 39.8225,80.9725 C 17.8645,80.9725 0,98.83575 0,120.79375 v 270.4125 c 0,21.958 17.8645,39.82125 39.8225,39.82125 h 432.355 c 21.958,0 39.8225,-17.86325 39.8225,-39.82125 V 120.79375 C 512,98.83675 494.1355,80.9725 472.1775,80.9725 Z m 0,34.1325 h 58.92875 v 49.12875 H 34.1325 v -43.44 c 0,-3.136 2.553,-5.68875 5.69,-5.68875 z m 373.425,0 h 58.93 c 3.137,0 5.69,2.55275 5.69,5.68875 v 43.44 h -64.62 z M 212.07625,184.855 321.88,240.7925 c 12.404,6.319 12.407,24.095 0,30.415 L 212.07625,327.145 c -11.249,5.728 -24.81375,-2.3815 -24.81375,-15.2075 v -111.875 c 0,-9.55275 7.58375,-16.5787 16.15625,-17.05875 2.8575,-0.16002 5.8245,0.40775 8.6575,1.85125 z M 34.1325,198.36875 h 64.61875 v 40.565 H 34.1325 Z m 379.115,0 h 64.62 v 40.565 h -64.62 z m -191.85125,85.72 L 276.535,256 221.39625,227.91125 Z M 34.1325,273.0675 h 64.61875 v 40.565 H 34.1325 Z m 379.115,0 h 64.62 v 40.565 h -64.62 z M 34.1325,347.76625 H 98.75125 V 396.895 H 39.8225 c -3.137,0 -5.69,-2.55175 -5.69,-5.68875 z m 379.115,0 h 64.62 v 43.44 c 0,3.137 -2.553,5.68875 -5.69,5.68875 h -58.93 z" />
</svg>
