<?xml version="1.0" encoding="UTF-8" standalone="no"?>
<!-- Uploaded to: SVG Repo, www.svgrepo.com, Generator: SVG Repo Mixer Tools -->

<svg
   width="800px"
   height="800px"
   viewBox="0 0 24 24"
   version="1.1"
   id="svg1"
   xmlns="http://www.w3.org/2000/svg"
   xmlns:svg="http://www.w3.org/2000/svg"
   xmlns:rdf="http://www.w3.org/1999/02/22-rdf-syntax-ns#"
   xmlns:cc="http://creativecommons.org/ns#"
   xmlns:dc="http://purl.org/dc/elements/1.1/">
  <defs
     id="defs1" />
  <title
     id="title1">vr</title>
  <desc
     id="desc1">Created with sketchtool.</desc>
  <path
     id="Shape" fill="#000000"
     d="M 7.0000195 7.6000195 C 5.89545 7.6000195 4.9999805 8.4954305 4.9999805 9.6 L 4.9999805 14.4 C 4.9999805 15.504569 5.89545 16.39998 7.0000195 16.39998 L 9 16.39998 L 10.99998 14.4 L 13.00002 14.4 L 15 16.39998 L 16.99998 16.39998 C 18.104549 16.39998 19.00002 15.504569 19.00002 14.4 L 19.00002 9.6 C 19.00002 8.4954305 18.104549 7.6000195 16.99998 7.6000195 L 7.0000195 7.6000195 z M 3 9 C 2.4477153 9 1.9999805 9.4477348 1.9999805 10.00002 L 1.9999805 13.99998 C 1.9999805 14.552265 2.4477153 15 3 15 C 3.5522848 15 4.0000195 14.552265 4.0000195 13.99998 L 4.0000195 10.00002 C 4.0000195 9.4477348 3.5522848 9 3 9 z M 21 9 C 20.447715 9 19.99998 9.4477348 19.99998 10.00002 L 19.99998 13.99998 C 19.99998 14.552265 20.447715 15 21 15 C 21.552285 15 22.00002 14.552265 22.00002 13.99998 L 22.00002 10.00002 C 22.00002 9.4477348 21.552285 9 21 9 z M 7.3625391 9.2896289 L 16.637461 9.2896289 C 17.042709 9.2896289 17.368945 9.6159241 17.368945 10.021172 L 17.368945 12.116777 C 17.368945 12.522025 17.042709 12.848262 16.637461 12.848262 L 7.3625391 12.848262 C 6.9572912 12.848262 6.6310547 12.522025 6.6310547 12.116777 L 6.6310547 10.021172 C 6.6310547 9.6159241 6.9572912 9.2896289 7.3625391 9.2896289 z " />
  <metadata
     id="metadata1">
    <rdf:RDF>
      <cc:Work
         rdf:about="">
        <dc:title>vr</dc:title>
      </cc:Work>
    </rdf:RDF>
  </metadata>
</svg>
