<?xml version="1.0" encoding="UTF-8" standalone="no"?>
<!-- Uploaded to: SVG Repo, www.svgrepo.com, Generator: SVG Repo Mixer Tools -->

<svg
   width="800px"
   height="800px"
   viewBox="0 0 1024 1024"
   class="icon"
   version="1.1"
   id="svg8"
   xmlns="http://www.w3.org/2000/svg"
   xmlns:svg="http://www.w3.org/2000/svg">
  <defs
     id="defs8" />
  <g
     id="g8"
     transform="matrix(0.94445424,-0.25306575,0.25306575,0.94445424,-92.692783,151.04162)">
    <path
       id="path1"
       style="display:inline;fill:#ffffff;fill-opacity:1"
       d="m 885.63524,130.1967 -662.18933,7e-5 0.002,761.83998 472.3227,10e-4 c 1.0116,0.043 1.96564,0.3002 2.98747,0.3002 l 176.97486,10e-4 c 1.02184,0 1.97297,-0.25845 2.98457,-0.30146 l 6.91972,-0.001 -0.001,-0.69652 c 33.81279,-4.84707 59.89132,-33.64176 59.89132,-68.79482 l -8e-5,-622.55533 c 0,-35.15203 -26.08021,-63.94833 -59.89198,-68.7954 z M 661.6115,263.30507 c 105.63291,32.92529 182.52722,131.63259 182.52722,247.96478 0,143.17808 -116.47772,259.65791 -259.6558,259.65791 -143.17808,0 -259.65476,-116.47953 -259.65477,-259.65761 0,-143.17808 116.47525,-259.65856 259.65333,-259.65857 26.84589,0 52.7532,4.09535 77.13002,11.69349 z m -8.05504,25.90284 c -21.83074,-6.80451 -45.03261,-10.46952 -69.07484,-10.46952 -128.22526,0 -232.5316,104.31118 -232.5316,232.53029 0,128.21911 104.30582,232.53473 232.5321,232.53473 128.22628,0 232.53539,-104.31546 232.53539,-232.53457 0,-104.17802 -68.86121,-192.57475 -163.46105,-222.06093 z m -36.8857,118.37576 c 44.18913,13.75718 76.35037,54.99938 76.38279,103.59938 0.0389,59.86862 -48.63044,108.61392 -108.4919,108.66002 l -0.0794,-10e-5 c -59.82152,0 -108.53267,-48.66973 -108.57257,-108.49228 -0.0266,-59.87477 48.64634,-108.61386 108.49551,-108.65376 11.23151,0 22.06806,1.71201 32.26555,4.88674 z m -8.00168,25.90126 c -7.641,-2.38178 -15.76253,-3.66404 -24.17561,-3.66404 -44.97519,0.0266 -81.48567,36.59212 -81.45907,81.50792 0.0399,44.87587 36.57981,81.39048 81.44954,81.39048 l -0.002,13.56028 0.052,-13.56006 c 44.92297,-0.0328 81.43819,-36.59866 81.39829,-81.50832 -0.0324,-36.46247 -24.15237,-67.40524 -57.26338,-77.72626 z" />
    <path
       id="path6"
       style="display:inline;fill:#ffffff;fill-opacity:1"
       d="m 889.4447,117.17494 c -1.20855,-0.3523 -2.48827,-0.53984 -3.81266,-0.53984 l -662.18686,7.3e-4 c -0.69189,0 -1.37166,0.0483 -2.03554,0.1481 l -144.147113,0.001 c -7.495864,0 -13.562676,6.07129 -13.562676,13.56101 l -4.66e-4,761.83932 c 0,7.49586 6.068275,13.56087 13.564139,13.56087 l 152.129806,10e-4 c 0.67655,0 1.33975,-0.0491 1.98959,-0.14453 l 0.003,-0.002 463.80142,0.013 c 1.16518,0.15973 2.34323,0.29086 3.57497,0.29086 l 176.96185,5.1e-4 c 1.23071,0 2.41318,-0.13276 2.99577,-0.30375 l 6.91165,-9.5e-4 a 12.586622,12.586622 0 0 0 5.97402,-1.52011 c 38.75099,-7.52146 67.47735,-41.87529 67.47735,-81.52729 l -5.6e-4,-622.5634 c 0,-39.23528 -28.13035,-73.27684 -66.2455,-81.28977 -1.04641,-0.6558 -2.18377,-1.17343 -3.39232,-1.52573 z m -0.65658,28.41201 c 24.94319,5.96812 43.17005,28.51119 43.17005,54.40429 l -5.8e-4,622.5578 c 0,27.61316 -20.73706,51.4272 -48.24476,55.36097 -0.80785,0.11877 -1.57889,0.31667 -2.3335,0.56855 l -3.18812,0.014 c -0.90101,0.0266 -1.76361,0.13134 -2.88886,0.29004 L 699.0955,878.77 c -0.91432,-0.13311 -1.842,-0.23966 -3.32561,-0.29286 H 242.95282 l 1.2e-4,-734.72058 637.56628,0.001 a 13.33713,13.33713 0 0 0 3.19202,0.86059 c 1.71917,0.24663 3.414,0.57072 5.07688,0.96859 z m -678.90309,-1.67781 -6e-4,734.71251 -119.061431,0.002 -0.0019,-734.71317 z" />
  </g>
</svg>
