<?xml version="1.0" encoding="UTF-8" standalone="no"?>
<!-- Uploaded to: SVG Repo, www.svgrepo.com, Generator: SVG Repo Mixer Tools -->

<svg
   fill="#000000"
   width="800px"
   height="800px"
   viewBox="0 0 100 100"
   version="1.1"
   xml:space="preserve"
   id="svg2"
   xmlns="http://www.w3.org/2000/svg"
   xmlns:svg="http://www.w3.org/2000/svg"><defs
   id="defs2" />
<path
   id="path1"
   style="fill:#000000;fill-opacity:1"
   d="M 49 26.021973 C 46.669626 26.149944 44.364041 26.833396 42.300049 28 C 33.15824 33.111549 23.629876 35.807459 14 35.992676 L 14 60.412598 C 18.384199 64.333375 30.612656 73.661943 49 73.990967 L 49 26.021973 z M 51 26.046875 L 51 73.990967 C 69.387344 73.661943 81.615801 64.333375 86 60.412598 L 86 35.992676 C 77.579198 35.830714 69.252455 33.635047 61.17749 29.697021 C 60.01334 29.206217 58.853998 28.645274 57.699951 28 C 55.635989 26.833439 53.33033 26.230583 51 26.046875 z M 7.1359863 29.982666 C 6.7597591 29.975335 6.375 30.043701 6 30.199951 C 4.8 30.599951 4 31.8 4 33 L 4 43.399902 C 4 49.61873 7.0206776 55.253058 12.100098 58.66748 L 12.100098 34.333496 L 9.3000488 31 C 8.7500488 30.38125 7.9636863 29.998794 7.1359863 29.982666 z M 93.090576 30.029541 C 92.181187 29.987367 91.299951 30.325 90.699951 31 L 88 34.214355 L 88 56 L 87.983887 58.610596 C 93.012528 55.190686 96 49.584329 96 43.399902 L 96 33 C 96 31.8 95.2 30.599951 94 30.199951 C 93.7 30.099951 93.393706 30.043599 93.090576 30.029541 z M 30 42 C 34.4 42 38 45.6 38 50 C 38 54.4 34.4 58 30 58 C 25.6 58 22 54.4 22 50 C 22 45.6 25.6 42 30 42 z M 30 44 C 26.7 44 24 46.7 24 50 C 24 53.3 26.7 56 30 56 C 33.3 56 36 53.3 36 50 C 36 46.7 33.3 44 30 44 z " />

</svg>
