<?xml version="1.0" encoding="UTF-8" standalone="no"?>
<!-- Uploaded to: SVG Repo, www.svgrepo.com, Generator: SVG Repo Mixer Tools -->

<svg
   fill="#ffffff"
   width="800px"
   height="800px"
   viewBox="0 -43.14 122.88 122.88"
   version="1.1"
   id="Layer_1"
   style="enable-background:new 0 0 122.88 36.6"
   xml:space="preserve"
   xmlns="http://www.w3.org/2000/svg"
   xmlns:svg="http://www.w3.org/2000/svg"><defs
   id="defs1" />

<style
   type="text/css"
   id="style1">.st0{fill-rule:evenodd;clip-rule:evenodd;}</style>

<g
   id="g1">

<path
   class="st0"
   d="m 122.8735,23.97 c -0.29,-1.63 -1.11,-2.63 -2.72,-2.69 0.14,-1.7 -0.18,-3.13 -0.92,-4.31 -0.35,-0.55 -0.79,-1.04 -1.33,-1.47 -1.87,-1.52 -3.99,-1.68 -6.3,-2.1 -2.24,-0.41 -4.48,-0.75 -6.71,-1.01 -2.7,-0.32 -5.410004,-0.53 -8.120004,-0.61 -1.25,-0.04 -0.95,0.03 -1.95,-0.73 -4.87,-3.76 -10.17,-6.85 -15.72,-9.52 -1.93,-0.98 -4.41,-1.45 -7.32,-1.53 -5.82,0 -28.91,0 -34.73,0 -3.85,0.02 -7.13,0.9 -9.88,2.56 l -10.58,8.14 c -3.53,0.23 -7.0499998,0.46 -10.5799998,0.7 -2.16,-0.06 -3.81,0.68 -4.44,3.02 v 7.15 c -2.99,0.77 -1.03999996,7.66 0.3,9.17 1.18,1.33 2.26,1.18 3.84,1.18 h 9.4299998 c -1.81,-13.63 12.08,-16.54 17.8,-9.12 1.89,2.45 2.18,5.79 1.39,9.72 h 60.09 c -2.19,-10.1 4.33,-14.21 10.330004,-13.62 7.72,0.76 9.75,6.95 8.42,13.74 h 6.69 c 1.9,0.08 2.79,-1.44 3.01,-4.01 v -4.66 z m -20.04,1.3 v 2.76 h -2.76 c 0.33,-1.35 1.4,-2.42 2.76,-2.76 z m -2.76,4.56 h 2.76 v 2.76 c -1.36,-0.33 -2.43,-1.4 -2.76,-2.76 z m 3.65,2.87 h 0.02 -0.01 -0.01 z m 0.91,-0.11 v -2.76 h 2.76 c -0.33,1.36 -1.4,2.43 -2.76,2.76 z m 2.76,-4.56 h -2.76 v -2.76 c 1.36,0.34 2.43,1.4 2.76,2.76 z M 24.073496,25.27 v 2.76 h -2.76 c 0.33,-1.35 1.4,-2.42 2.76,-2.76 z m -2.87,3.65 v 0.02 -0.01 -0.01 z m 0.1,0.91 h 2.77 v 2.76 c -1.36,-0.33 -2.43,-1.4 -2.77,-2.76 z m 3.65,2.87 h 0.02 -0.01 -0.01 z m 0.91,-0.11 v -2.76 h 2.76 c -0.33,1.36 -1.4,2.43 -2.76,2.76 z m 2.77,-4.56 h -2.76 v -2.76 c 1.35,0.34 2.42,1.4 2.76,2.76 z m 61.17,-17.33 V 14 h -20.09 l -1.56,-11.48 h 4.58 c 3.65,0.43 4.24,0.55 7.55,2.31 2.73,1.45 5.22,3.04 7.87,4.77 0.55,0.36 1.11,0.73 1.65,1.1 z m -44.47,-8.31 1.73,11.62 h -11.53 l -2.37,-2.57 -1.29,-1.4 c 0.12,-6.79 0.93,-7.55 6.95,-7.58 l 6.51,-0.07 z m 19.46,0 1.73,11.62 h -15.37 l -1.52,-11.53 15.16,-0.09 z M 103.7335,21.27 c -4.230004,0 -7.670004,3.43 -7.670004,7.67 0,4.23 3.43,7.67 7.670004,7.67 4.23,0 7.67,-3.43 7.67,-7.67 0,-4.24 -3.43,-7.67 -7.67,-7.67 z m -78.760004,0 c -4.23,0 -7.67,3.43 -7.67,7.67 0,4.23 3.43,7.67 7.67,7.67 4.23,0 7.67,-3.43 7.67,-7.67 -0.01,-4.24 -3.44,-7.67 -7.67,-7.67 z"
   id="path1" />

</g>

</svg>
