<?xml version="1.0" encoding="UTF-8" standalone="no"?>
<!-- Uploaded to: SVG Repo, www.svgrepo.com, Generator: SVG Repo Mixer Tools -->

<svg
   version="1.1"
   id="_x32_"
   width="800px"
   height="800px"
   viewBox="0 0 512 512"
   xml:space="preserve"
   xmlns="http://www.w3.org/2000/svg"
   xmlns:svg="http://www.w3.org/2000/svg"><defs
   id="defs2"><rect
     x="431.72414"
     y="222.06897"
     width="178.62069"
     height="220"
     id="rect2" /></defs>
<g
   id="g2">
	<path
   id="path1" fill="#000000"
   class="st0"
   d="m 308.35334,25.602636 c -9.3675,-0.121276 -22.59671,1.414587 -38.04444,8.044941 -39.27722,16.860738 -61.15775,-4.640663 -61.15775,-4.640663 l 19.39178,63.703648 c -6.08945,6.919256 -82.36507,37.926988 -96.18829,110.897778 -7.01735,36.98491 3.07983,83.27881 35.32529,114.76557 11.6578,-4.48564 26.17132,-7.39693 44.97338,-7.39693 h 77.03501 c 17.85974,0 32.38563,14.52679 32.38563,32.38564 0,0.8154 -0.11205,1.61798 -0.16874,2.4199 70.22847,-24.38481 92.99573,-94.79621 80.19852,-145.70333 C 383.58338,126.23629 311.86382,98.462509 305.59257,91.698053 l 17.63451,-64.195277 c 0,0 -5.50623,-1.778864 -14.87374,-1.90014 z m -0.65363,128.023804 h 10.12395 v 8.03931 c 9.42871,0.49625 16.87272,3.5231 22.33144,9.08108 5.45872,5.55797 8.23707,13.00198 8.33632,22.33143 H 329.43601 V 192.185 c 0,-4.36697 -1.04216,-7.88972 -3.1264,-10.56946 -1.98499,-2.77899 -4.81371,-4.41667 -8.48595,-4.91292 v 29.92301 c 11.51294,3.17597 19.75061,7.19574 24.71309,12.05897 4.96247,4.86322 7.44305,11.3647 7.44305,19.50315 0,9.52795 -2.82759,17.02123 -8.48481,22.47994 -5.55797,5.35947 -13.44862,8.58446 -23.67133,9.6762 v 15.63201 h -10.12395 v -15.63201 c -10.52044,-0.99249 -18.65849,-4.41674 -24.41495,-10.27246 -5.65722,-5.85571 -8.48594,-13.2986 -8.48594,-22.3303 v -1.33989 h 19.50203 c 0.49625,10.52044 4.96266,16.52491 13.39886,18.01365 v -31.71064 c -20.24689,-4.66471 -30.36963,-15.23522 -30.36963,-31.71063 0,-8.33696 2.62948,-15.08582 7.8897,-20.24679 5.35947,-5.16098 12.85273,-8.18783 22.47993,-9.08108 z m -66.24842,3.57302 c 5.45872,0 9.87476,0.3974 13.24923,1.19139 3.37448,0.79399 7.19612,2.67906 11.46385,5.65655 l -6.69943,18.4614 c -2.08424,-1.98499 -4.26819,-3.4738 -6.55093,-4.46629 -2.28274,-0.99249 -4.21818,-1.58801 -5.80617,-1.78651 -1.48874,-0.1985 -3.47344,-0.29813 -5.95468,-0.29813 -6.55045,0 -12.05903,2.18395 -16.52526,6.55093 -4.46622,4.26773 -7.64196,9.97443 -9.5277,17.12039 h 38.26044 l -3.72153,10.12284 h -35.58067 c -0.29775,2.38198 -0.44663,4.41705 -0.44663,6.1043 0,1.68724 0.0996,3.02716 0.29813,4.01965 h 32.00764 l -3.57303,10.12283 h -26.79772 c 1.98499,6.94746 5.06222,12.35641 9.2307,16.22713 4.26773,3.77149 9.3789,5.65768 15.33387,5.65768 2.48125,0 4.56556,-0.0996 6.2528,-0.29813 1.68725,-0.29774 3.92045,-1.09141 6.69944,-2.38164 2.87823,-1.29024 5.80546,-3.22569 8.78294,-5.80618 v 22.18294 c -7.74145,3.37448 -15.28398,5.06141 -22.62843,5.06141 -3.07673,0 -6.25247,-0.29776 -9.52771,-0.89325 -3.27523,-0.59551 -6.89873,-1.78655 -10.86871,-3.57304 -3.87072,-1.88574 -7.44273,-4.26782 -10.71796,-7.14605 -3.27524,-2.87823 -6.30322,-6.79838 -9.0822,-11.76085 -2.67974,-5.06172 -4.66444,-10.8188 -5.95467,-17.27002 h -11.46272 l 3.57302,-10.12283 h 6.54981 c -0.1985,-1.3895 -0.29813,-3.1268 -0.29813,-5.21104 0,-2.08424 0.0504,-3.72192 0.14963,-4.91291 h -9.97433 l 3.57302,-10.12284 h 7.14493 c 6.15347,-28.28609 22.53031,-42.42973 49.12916,-42.42973 z m 66.24842,19.50316 c -8.03921,1.588 -12.05897,6.1529 -12.05897,13.69587 0,6.25271 4.01976,10.66987 12.05897,13.25035 z m 10.12395,48.53291 v 29.17936 c 8.33696,-2.08423 12.50561,-6.89766 12.50561,-14.44062 0,-7.24522 -4.16865,-12.15826 -12.50561,-14.73874 z m -105.1726,98.8613 c -48.1648,0 -63.40777,20.06769 -80.26941,36.92844 l -30.58676,26.70546 c -1.982712,1.72981 -3.121896,4.21924 -3.121896,6.86256 v 88.77785 c 0,1.18171 0.689181,2.26397 1.771886,2.75627 1.08271,0.49231 2.34902,0.32288 3.24903,-0.46462 l 59.10461,-50.66704 c 2.08172,-1.77212 4.86566,-2.51755 7.55218,-2.03964 l 92.11014,16.748 c 6.42695,1.16731 13.03615,-0.30982 18.3804,-4.07816 0,0 117.56369,-81.74564 126.24066,-88.9736 8.26927,-7.59426 8.18377,-18.60495 0.57601,-26.88772 -7.59427,-8.28277 -21.75453,-6.52483 -31.21901,0.47813 -8.66258,7.21446 -67.82344,46.09725 -67.82344,46.09725 h -71.9027 l -0.22501,0.11251 c -3.78273,-0.12691 -6.75006,-3.30483 -6.63756,-7.08756 0.14041,-3.78274 3.31923,-6.74984 7.08756,-6.62293 l -0.22499,-0.12713 h 52.97331 c 10.64528,0 19.26577,-8.62049 19.26577,-19.25228 0,-10.64529 -8.62049,-19.26579 -19.26577,-19.26579 z"
   style="stroke-width:0.900007" />

</g>
</svg>
